<svg width="150" height="142" viewBox="0 0 150 142" fill="none" xmlns="http://www.w3.org/2000/svg">
<g filter="url(#filter0_b_34190_1591)">
<path d="M0 20C0 8.9543 8.95431 0 20 0H130C141.046 0 150 8.95431 150 20V142H0V20Z" fill="white" fill-opacity="0.1"/>
<path d="M42.5 49.75H82.5C85.1522 49.75 87.6957 50.8036 89.5711 52.6789C91.4464 54.5543 92.5 57.0978 92.5 59.75V89.75C92.5 90.413 92.2366 91.0489 91.7678 91.5178C91.2989 91.9866 90.663 92.25 90 92.25H50C47.3478 92.25 44.8043 91.1964 42.9289 89.3211C41.0536 87.4457 40 84.9022 40 82.25V52.25C40 51.587 40.2634 50.9511 40.7322 50.4822C41.2011 50.0134 41.837 49.75 42.5 49.75V49.75Z" stroke="white" stroke-width="3" stroke-linecap="round" stroke-linejoin="round"/>
<path d="M92.5 66L110 56V86L92.5 76" stroke="white" stroke-width="3" stroke-linecap="round" stroke-linejoin="round"/>
</g>
<defs>
<filter id="filter0_b_34190_1591" x="-15" y="-15" width="180" height="172" filterUnits="userSpaceOnUse" color-interpolation-filters="sRGB">
<feFlood flood-opacity="0" result="BackgroundImageFix"/>
<feGaussianBlur in="BackgroundImageFix" stdDeviation="7.5"/>
<feComposite in2="SourceAlpha" operator="in" result="effect1_backgroundBlur_34190_1591"/>
<feBlend mode="normal" in="SourceGraphic" in2="effect1_backgroundBlur_34190_1591" result="shape"/>
</filter>
</defs>
</svg>
