<svg width="150" height="142" viewBox="0 0 150 142" fill="none" xmlns="http://www.w3.org/2000/svg">
<g filter="url(#filter0_b_34190_1619)">
<path d="M0 20C0 8.9543 8.95431 0 20 0H130C141.046 0 150 8.95431 150 20V142H0V20Z" fill="white" fill-opacity="0.1"/>
<path d="M75 101C91.5685 101 105 87.5685 105 71C105 54.4315 91.5685 41 75 41C58.4315 41 45 54.4315 45 71C45 87.5685 58.4315 101 75 101Z" stroke="white" stroke-width="3" stroke-linecap="round" stroke-linejoin="round"/>
<path d="M53.75 49.8135C59.3592 55.4373 62.5064 63.058 62.5 71.001C62.5064 78.944 59.3592 86.5646 53.75 92.1885" stroke="white" stroke-width="3" stroke-linecap="round" stroke-linejoin="round"/>
<path d="M96.2502 49.8135C90.6474 55.4415 87.502 63.0596 87.502 71.001C87.502 78.9424 90.6474 86.5605 96.2502 92.1885" stroke="white" stroke-width="3" stroke-linecap="round" stroke-linejoin="round"/>
<path d="M45 71H105" stroke="white" stroke-width="3" stroke-linecap="round" stroke-linejoin="round"/>
<path d="M75 41V101" stroke="white" stroke-width="3" stroke-linecap="round" stroke-linejoin="round"/>
</g>
<defs>
<filter id="filter0_b_34190_1619" x="-15" y="-15" width="180" height="172" filterUnits="userSpaceOnUse" color-interpolation-filters="sRGB">
<feFlood flood-opacity="0" result="BackgroundImageFix"/>
<feGaussianBlur in="BackgroundImageFix" stdDeviation="7.5"/>
<feComposite in2="SourceAlpha" operator="in" result="effect1_backgroundBlur_34190_1619"/>
<feBlend mode="normal" in="SourceGraphic" in2="effect1_backgroundBlur_34190_1619" result="shape"/>
</filter>
</defs>
</svg>
